PathFileType	4	(X/Y/Z)	Kane _Static
DataRate	CameraRate	NumFrames	NumMarkers	Units	OrigDataRate	OrigDataStartFrame	OrigNumFrames
250	250	4	66	mm	250	473	200
Frame#	Time	LASI			RASI			LPSI			RPSI			C7			T10			CLAV			STRN			RTH1			RTH2			RTH3			RTB1			RTB2			RTB3			RCAL			RMT1			RMT2			LTH1			LTH2			LTH3			LTB1			LTB2			LTB3			LCAL			LMT1			LMT2			RLFC			RMFC			LLFC			LMFC			RMMAL			RLMAL			LMMAL			LLMAL			G_LCAL			G_LMT1			G_LMT2			G_RCAL			G_RMT1			G_RMT2			LAJC			LKJC			OPelvis			RAJC			RKJC			Reg_LHJC			Reg_RHJC			SACR			fun_LAJC			fun_LHJC			fun_LKJC			fun_LLAJC			fun_LLKJC			fun_LMAJC			fun_LMKJC			fun_RAJC			fun_RHJC			fun_RKJC			fun_RLAJC			fun_RLKJC			fun_RMAJC			fun_RMKJC			RHJC			LHJC			G_RAJC			G_LAJC		
		X1	Y1	Z1	X2	Y2	Z2	X3	Y3	Z3	X4	Y4	Z4	X5	Y5	Z5	X6	Y6	Z6	X7	Y7	Z7	X8	Y8	Z8	X9	Y9	Z9	X10	Y10	Z10	X11	Y11	Z11	X12	Y12	Z12	X13	Y13	Z13	X14	Y14	Z14	X15	Y15	Z15	X16	Y16	Z16	X17	Y17	Z17	X18	Y18	Z18	X19	Y19	Z19	X20	Y20	Z20	X21	Y21	Z21	X22	Y22	Z22	X23	Y23	Z23	X24	Y24	Z24	X25	Y25	Z25	X26	Y26	Z26	X27	Y27	Z27	X28	Y28	Z28	X29	Y29	Z29	X30	Y30	Z30	X31	Y31	Z31	X32	Y32	Z32	X33	Y33	Z33	X34	Y34	Z34	X35	Y35	Z35	X36	Y36	Z36	X37	Y37	Z37	X38	Y38	Z38	X39	Y39	Z39	X40	Y40	Z40	X41	Y41	Z41	X42	Y42	Z42	X43	Y43	Z43	X44	Y44	Z44	X45	Y45	Z45	X46	Y46	Z46	X47	Y47	Z47	X48	Y48	Z48	X49	Y49	Z49	X50	Y50	Z50	X51	Y51	Z51	X52	Y52	Z52	X53	Y53	Z53	X54	Y54	Z54	X55	Y55	Z55	X56	Y56	Z56	X57	Y57	Z57	X58	Y58	Z58	X59	Y59	Z59	X60	Y60	Z60	X61	Y61	Z61	X62	Y62	Z62	X63	Y63	Z63	X64	Y64	Z64	X65	Y65	Z65	X66	Y66	Z66	
462	1.848	550.714925	1039.712102	-665.723837	547.809355	1039.158646	-460.187965	378.632896	1110.401153	-619.789009	376.144407	1105.081988	-508.403323	385.396334	1542.935498	-568.274773	363.958420	1300.111913	-565.725235	518.958217	1491.338583	-562.700360	585.848545	1320.119337	-560.159716	469.053727	898.955758	-390.159022	564.556814	795.165221	-458.731882	475.098320	695.179488	-388.039910	467.800215	411.983897	-482.342048	412.044397	331.361986	-378.358520	434.516474	221.083701	-462.136888	312.171661	 56.696137	-438.092073	553.586557	 59.946473	-431.292919	527.684032	 56.396054	-352.479918	436.986389	861.988752	-748.088944	541.079462	750.729390	-712.732898	421.918975	663.536265	-738.918054	460.696467	415.333129	-670.102722	387.552668	337.168566	-764.665790	423.329491	221.080191	-682.753116	301.894853	 59.666479	-703.120632	547.665364	 54.665584	-701.366479	515.736191	 52.766117	-794.773927	468.944662	502.570602	-413.753213	481.905847	489.261830	-516.321312	439.063252	510.659194	-728.807623	454.384890	508.460885	-627.097292	414.016383	106.823524	-472.252315	393.031894	108.315099	-385.056630	423.986934	117.946837	-676.552019	377.321280	108.901056	-758.813599	301.894853	  0.000000	-703.120632	547.665364	  0.000000	-701.366479	515.736191	  0.000000	-794.773927	312.171661	  0.000000	-438.092073	553.586557	  0.000000	-431.292919	527.684032	  0.000000	-352.479918	400.654107	113.423947	-717.682809	446.724071	509.560040	-677.952458	549.262138	1039.435384	-562.955897	403.524138	107.569311	-428.654473	475.425254	495.916216	-465.037263	479.827371	996.778522	-633.705470	478.626936	996.093219	-493.829823	377.388652	1107.741566	-564.096163	384.382775	118.435051	-709.003370	469.965819	952.536627	-663.031593	446.724072	509.560037	-677.952465	372.136133	114.651368	-756.504474	439.063252	510.659194	-728.807623	396.629423	122.218733	-661.502265	454.384890	508.460885	-627.097292	396.739528	104.055383	-430.227176	468.865670	949.517825	-474.866818	475.425255	495.916218	-465.037261	385.434323	100.837328	-386.757152	468.944662	502.570602	-413.753213	408.044729	107.273437	-473.697202	481.905847	489.261830	-516.321312	468.865670	949.517825	-474.866818	469.965819	952.536627	-663.031593	403.524138	  0.000000	-428.654473	400.654107	  0.000000	-717.682809	
463	1.852	550.775228	1039.701711	-665.717929	547.874577	1039.147138	-460.183842	378.709488	1110.406214	-619.794426	376.222085	1105.080634	-508.416158	385.464434	1542.938637	-568.279818	364.023822	1300.102956	-565.729833	519.014888	1491.322102	-562.697871	585.901508	1320.104501	-560.161215	469.104241	898.949181	-390.163412	564.592135	795.155089	-458.733766	475.128942	695.174772	-388.043916	467.814002	411.981585	-482.343672	412.054147	331.361863	-378.358311	434.522569	221.082731	-462.137305	312.172739	 56.697485	-438.091533	553.587201	 59.945414	-431.292270	527.684136	 56.394959	-352.479149	437.041703	861.987502	-748.093290	541.123943	750.722090	-712.733234	421.959464	663.534979	-738.921610	460.717410	415.329370	-670.102816	387.569406	337.168363	-764.666671	423.338988	221.080543	-682.753590	301.895510	 59.666342	-703.119209	547.665759	 54.665086	-701.366063	515.736515	 52.765866	-794.773562	468.954857	502.566765	-413.755652	481.913789	489.256501	-516.323838	439.091848	510.657951	-728.809768	454.409641	508.459188	-627.098869	414.022350	106.826982	-472.254861	393.033779	108.315692	-385.055760	423.988394	117.945197	-676.551035	377.322097	108.902444	-758.813765	301.895510	  0.000000	-703.119209	547.665759	  0.000000	-701.366063	515.736515	  0.000000	-794.773562	312.172739	  0.000000	-438.091533	553.587201	  0.000000	-431.292270	527.684136	  0.000000	-352.479149	400.655246	113.423821	-717.682400	446.750745	509.558570	-677.954318	549.324901	1039.424434	-562.950881	403.528064	107.571337	-428.655311	475.434323	495.911633	-465.039745	479.893777	996.770806	-633.704004	478.683451	996.089934	-493.828417	377.465786	1107.743418	-564.105289	384.385975	118.436292	-709.004089	470.029432	952.529220	-663.029614	446.750746	509.558567	-677.954325	372.139360	114.653357	-756.505852	439.091848	510.657951	-728.809768	396.632598	122.219227	-661.502326	454.409641	508.459188	-627.098869	396.741317	104.056156	-430.228872	468.917179	949.515776	-474.864824	475.434324	495.911635	-465.039744	385.435460	100.838699	-386.757013	468.954857	502.566765	-413.755652	408.047170	107.273612	-473.700732	481.913789	489.256501	-516.323838	468.917179	949.515776	-474.864824	470.029432	952.529220	-663.029614	403.528064	  0.000000	-428.655311	400.655246	  0.000000	-717.682400	
464	1.856	550.834836	1039.690813	-665.712481	547.940400	1039.135288	-460.180085	378.786713	1110.411766	-619.799492	376.299939	1105.079886	-508.428801	385.533724	1542.941789	-568.284776	364.090504	1300.094210	-565.733818	519.070654	1491.305388	-562.695983	585.955949	1320.090196	-560.163725	469.154803	898.942504	-390.167921	564.627055	795.144717	-458.735973	475.159469	695.170044	-388.047965	467.827509	411.979351	-482.345408	412.063671	331.361743	-378.358113	434.528328	221.081622	-462.137709	312.173993	 56.698724	-438.090826	553.587742	 59.944462	-431.291657	527.684255	 56.393873	-352.478260	437.096064	861.986259	-748.097685	541.167500	750.714727	-712.733570	421.998936	663.533777	-738.925184	460.737801	415.325794	-670.102990	387.585666	337.168122	-764.667516	423.348209	221.080980	-682.754059	301.896124	 59.666185	-703.117665	547.666068	 54.664652	-701.365522	515.736765	 52.765633	-794.773205	468.964685	502.562837	-413.757984	481.920978	489.251022	-516.326298	439.119392	510.656729	-728.811893	454.433333	508.457524	-627.100424	414.027789	106.830113	-472.257106	393.035634	108.316272	-385.054745	423.989944	117.943492	-676.550081	377.322784	108.903757	-758.814333	301.896124	  0.000000	-703.117665	547.666068	  0.000000	-701.365522	515.736765	  0.000000	-794.773205	312.173993	  0.000000	-438.090826	553.587742	  0.000000	-431.291657	527.684255	  0.000000	-352.478260	400.656364	113.423625	-717.682207	446.776362	509.557127	-677.956158	549.387616	1039.413060	-562.946279	403.531711	107.573193	-428.655927	475.442832	495.906929	-465.042141	479.959584	996.762958	-633.702573	478.740001	996.086725	-493.827041	377.543326	1107.745819	-564.114144	384.388993	118.437534	-709.004937	470.092042	952.521704	-663.027564	446.776364	509.557124	-677.956165	372.142326	114.655296	-756.507558	439.119392	510.656729	-728.811893	396.635667	122.219772	-661.502315	454.433333	508.457524	-627.100424	396.742753	104.056908	-430.230317	468.968551	949.513884	-474.862750	475.442833	495.906932	-465.042140	385.436313	100.840076	-386.756723	468.964685	502.562837	-413.757984	408.049190	107.273740	-473.703912	481.920978	489.251022	-516.326298	468.968551	949.513884	-474.862750	470.092042	952.521704	-663.027564	403.531711	  0.000000	-428.655927	400.656364	  0.000000	-717.682207	
465	1.86	550.893788	1039.679434	-665.707517	548.006822	1039.123136	-460.176702	378.864499	1110.417761	-619.804213	376.377889	1105.079736	-508.441215	385.604181	1542.944948	-568.289636	364.158422	1300.085688	-565.737207	519.125369	1491.288415	-562.694702	586.011847	1320.076432	-560.167255	469.205421	898.935740	-390.172532	564.661625	795.134122	-458.738480	475.189945	695.165316	-388.052055	467.840763	411.977193	-482.347255	412.073006	331.361629	-378.357921	434.533766	221.080372	-462.138098	312.175428	 56.699854	-438.089964	553.588185	 59.943612	-431.291083	527.684393	 56.392798	-352.477256	437.149485	861.985016	-748.102124	541.210166	750.707302	-712.733897	422.037440	663.532661	-738.928765	460.757665	415.322387	-670.103240	387.601470	337.167839	-764.668326	423.357165	221.081489	-682.754523	301.896697	 59.666013	-703.116003	547.666298	 54.664279	-701.364863	515.736947	 52.765418	-794.772858	468.974231	502.558825	-413.760227	481.927527	489.245410	-516.328709	439.145962	510.655520	-728.813981	454.456042	508.455893	-627.101941	414.032706	106.832918	-472.259057	393.037456	108.316842	-385.053600	423.991584	117.941723	-676.549159	377.323358	108.904989	-758.815288	301.896697	  0.000000	-703.116003	547.666298	  0.000000	-701.364863	515.736947	  0.000000	-794.772858	312.175428	  0.000000	-438.089964	553.588185	  0.000000	-431.291083	527.684393	  0.000000	-352.477256	400.657471	113.423356	-717.682223	446.801002	509.555706	-677.957961	549.450303	1039.401293	-562.942106	403.535080	107.574880	-428.656329	475.450879	495.902118	-465.044468	480.024802	996.754992	-633.701186	478.796619	996.083596	-493.825702	377.621194	1107.748740	-564.122712	384.391835	118.438770	-709.005906	470.153674	952.514088	-663.025453	446.801004	509.555704	-677.957967	372.145043	114.657180	-756.509575	439.145962	510.655520	-728.813981	396.638635	122.220360	-661.502237	454.456042	508.455893	-627.101941	396.743851	104.057645	-430.231520	469.019847	949.512143	-474.860606	475.450880	495.902120	-465.044467	385.436900	100.841464	-386.756292	468.974231	502.558825	-413.760227	408.050798	107.273824	-473.706748	481.927527	489.245410	-516.328709	469.019847	949.512143	-474.860606	470.153674	952.514088	-663.025453	403.535080	  0.000000	-428.656329	400.657471	  0.000000	-717.682223	
